<?xml version="1.0" encoding="UTF-8" standalone="no" ?><!DOCTYPE svg PUBLIC "-//W3C//DTD SVG 1.1//EN" "http://www.w3.org/Graphics/SVG/1.1/DTD/svg11.dtd">
<svg xmlns="http://www.w3.org/2000/svg" xmlns:xlink="http://www.w3.org/1999/xlink" version="1.1" width="800" height="500" xml:space="preserve"><desc>Created with Fabric.js 1.5.0</desc><defs></defs><g style="stroke: none; stroke-width: 1; stroke-dasharray: ; stroke-linecap: butt; stroke-linejoin: miter; stroke-miterlimit: 10; fill: none; fill-rule: nonzero; opacity: 1;" transform="translate(109.23000000000002 97.82) scale(5.78 2.33)" >
<path d="M 7.3 59.301 c -4.6 -2 -7.033 -2.984 -7.3 -2.951 c 13.833 -1.166 23.8 -0.25 29.9 2.75 c 6.1 3.033 9.35 5.15 9.75 6.351 c 9.567 -10.7 19.4 -19.467 29.5 -26.3 c 10.1 -6.867 18.666 -11.933 25.699 -15.2 c 7 -3.267 10.65 -4.883 10.95 -4.85 C 88.4 31.033 75.316 41.033 66.55 49.1 C 57.783 57.133 51.4 63.967 47.4 69.6 c -4 5.634 -7.55 10.817 -10.65 15.551 c -3.6 -6.733 -8.25 -12.233 -13.95 -16.5 C 17.067 64.417 11.9 61.301 7.3 59.301 z" style="stroke: none; stroke-width: 1; stroke-dasharray: ; stroke-linecap: butt; stroke-linejoin: miter; stroke-miterlimit: 10; fill: #192791; fill-rule: evenodd; opacity: 1;" transform="" stroke-linecap="round" />
<path d="M 24.4 54.05 c -4 -0.433 -8.683 -0.433 -14.05 0 v -21 L 24.4 24.4 V 54.05 z" style="stroke: none; stroke-width: 1; stroke-dasharray: ; stroke-linecap: butt; stroke-linejoin: miter; stroke-miterlimit: 10; fill: #8b9ca6; fill-rule: evenodd; opacity: 1;" transform="" stroke-linecap="round" />
<path d="M 35.15 33.45 v -2 l -5.9 -4.35 V 8.65 L 42.3 0 v 58.45 c -1.066 -0.667 -3.45 -1.55 -7.15 -2.65 V 33.45 z" style="stroke: none; stroke-width: 1; stroke-dasharray: ; stroke-linecap: butt; stroke-linejoin: miter; stroke-miterlimit: 10; fill: #8b9ca6; fill-rule: evenodd; opacity: 1;" transform="" stroke-linecap="round" />
<path d="M 61.65 41.6 c -4.334 3.367 -8.6 7.017 -12.8 10.951 V 19.7 l 12.8 9.35 V 41.6 z" style="stroke: none; stroke-width: 1; stroke-dasharray: ; stroke-linecap: butt; stroke-linejoin: miter; stroke-miterlimit: 10; fill: #8b9ca6; fill-rule: evenodd; opacity: 1;" transform="" stroke-linecap="round" />
</g>
	<g transform="translate(416.41 351.49) scale(3.05 1.57)">
		<text font-family="Crimson Text" font-size="60" font-weight="normal" style="stroke: none; stroke-width: 1; stroke-dasharray: ; stroke-linecap: butt; stroke-linejoin: miter; stroke-miterlimit: 10; fill: #074de3; fill-rule: nonzero; opacity: 1;" ><tspan x="-101.4844" y="13.476" fill="#074de3">Terrazul</tspan></text>
	</g>
	<g transform="translate(415.59 396.78) scale(2.48 1.75)">
		<text font-family="Crimson Text" font-size="18" font-weight="normal" style="stroke: none; stroke-width: 1; stroke-dasharray: ; stroke-linecap: butt; stroke-linejoin: miter; stroke-miterlimit: 10; fill: #070708; fill-rule: nonzero; opacity: 1;" ><tspan x="-117.6855" y="4.0428" fill="#070708">Servicios y Comercialización SpA</tspan></text>
	</g>
</svg>